<?xml version="1.0" encoding="UTF-8"?>
<!DOCTYPE svg PUBLIC "-//W3C//DTD SVG 1.1//EN" "http://www.w3.org/Graphics/SVG/1.1/DTD/svg11.dtd">
<!-- Creator: CorelDRAW X8 -->
<svg xmlns="http://www.w3.org/2000/svg" xml:space="preserve" width="210mm" height="210mm" version="1.1" style="shape-rendering:geometricPrecision; text-rendering:geometricPrecision; image-rendering:optimizeQuality; fill-rule:evenodd; clip-rule:evenodd"
viewBox="0 0 21000 21000"
 xmlns:xlink="http://www.w3.org/1999/xlink">
 <defs>
  <style type="text/css">
   <![CDATA[
    .fil0 {fill:none}
    .fil1 {fill:#0091E2}
   ]]>
  </style>
 </defs>
 <g id="Livello_x0020_1">
  <metadata id="CorelCorpID_0Corel-Layer"/>
  <rect class="fil0" y="5847" width="21000" height="9306"/>
  <g id="_2947972322208">
   <g>
    <path class="fil1" d="M9924 9461c-104,-3 -187,78 -191,177 0,4 0,10 0,13l0 915c-441,-354 -1088,-283 -1442,158 -145,183 -226,409 -226,644 -10,567 441,1034 1008,1044 567,9 1034,-442 1044,-1009 0,-12 0,-22 0,-35l0 -1717c0,-51 -20,-100 -55,-135 -39,-35 -87,-55 -138,-55l0 0zm-242 2155c-64,155 -187,277 -341,345 -162,67 -342,67 -503,0 -155,-65 -274,-190 -338,-342 -68,-158 -68,-338 0,-499 64,-155 187,-277 338,-341 161,-68 341,-68 503,0 154,67 277,190 341,344 68,155 68,335 0,493z"/>
   </g>
   <g>
    <path class="fil1" d="M12065 10643c-399,-399 -1050,-399 -1449,0 -193,194 -300,454 -300,725 -9,567 442,1034 1009,1044 566,9 1033,-442 1043,-1009 0,-12 0,-22 0,-35 0,-135 -26,-267 -77,-393 -52,-126 -129,-238 -226,-332l0 0zm-132 970c-32,77 -80,145 -138,203 -58,58 -129,106 -203,138 -161,68 -341,68 -503,0 -154,-64 -277,-190 -341,-341 -68,-158 -68,-338 0,-499 64,-155 187,-274 341,-342 162,-67 342,-67 503,0 77,32 145,81 203,139 58,58 106,128 138,203 68,164 68,344 0,499z"/>
   </g>
   <path class="fil1" d="M16307 10531c0,-26 -6,-52 -16,-74 -10,-23 -26,-42 -42,-62 -16,-16 -38,-32 -61,-42 -22,-9 -48,-16 -74,-16 -35,0 -71,10 -103,29l-1095 712 0 -1423c0,-52 -19,-100 -55,-136 -35,-35 -84,-58 -135,-58 -106,0 -190,84 -193,190 0,0 0,0 0,4l0 2544c0,52 19,100 54,135 36,39 84,58 136,58 51,0 99,-19 135,-58 35,-35 58,-83 55,-135l0 -660 222 -145 847 950c35,32 80,51 129,48 26,0 51,-3 74,-16 22,-10 42,-22 61,-42 16,-19 32,-38 42,-61 10,-22 16,-48 16,-74 0,-48 -19,-97 -52,-132l-785 -886 766 -499c52,-32 77,-90 74,-151z"/>
   <path class="fil1" d="M13128 10911c58,-58 129,-107 206,-139 81,-32 165,-51 252,-51 77,0 151,13 222,38 71,29 138,68 196,119 36,29 81,42 126,42 51,4 103,-16 138,-54 36,-36 55,-87 55,-139 0,-55 -22,-109 -67,-145 -184,-164 -422,-254 -670,-248 -567,0 -1028,461 -1028,1028 0,566 458,1024 1021,1027 248,0 487,-87 673,-248 39,-35 62,-87 62,-142 3,-103 -78,-187 -178,-190 -3,0 -9,0 -12,0 -46,0 -87,13 -123,39 -58,51 -122,90 -193,119 -71,26 -148,39 -222,39 -87,0 -171,-16 -252,-52 -77,-32 -145,-80 -206,-138 -251,-252 -251,-657 -3,-909 3,7 3,7 3,4z"/>
   <path class="fil1" d="M20111 10469c-39,-35 -80,-61 -129,-77 -54,-19 -112,-32 -170,-39 -58,-6 -116,-9 -174,-9 -116,0 -236,19 -345,61 -110,39 -209,97 -300,167l0 -38c-3,-106 -93,-187 -199,-184 -100,3 -181,84 -184,184l0 1671c3,107 94,187 200,184 100,-3 180,-84 183,-184l0 -834c0,-87 17,-170 52,-251 32,-77 77,-145 138,-203 58,-58 129,-106 203,-138 81,-33 165,-52 252,-52 87,0 170,16 251,45 26,13 51,20 80,20 26,0 52,-4 74,-17 23,-9 42,-22 62,-41 16,-17 32,-39 42,-62 9,-22 16,-48 16,-74 3,-48 -16,-93 -52,-129z"/>
   <g>
    <path class="fil1" d="M18333 10975c-164,-380 -538,-628 -950,-631 -567,0 -1024,457 -1027,1024 0,0 0,0 0,0 0,567 460,1027 1027,1027 245,0 483,-86 670,-248 3,-3 6,-6 6,-6 17,-13 33,-29 42,-48 61,-90 39,-210 -48,-271 -74,-48 -171,-38 -235,23 -7,6 -26,22 -26,25l-3 4c-55,45 -116,83 -184,106 -71,26 -145,39 -222,35 -71,0 -138,-9 -206,-32 -65,-22 -126,-51 -180,-93 -55,-39 -104,-87 -142,-142 -42,-55 -71,-119 -90,-184l1449 0c52,0 100,-19 135,-54 39,-36 58,-84 55,-136 3,-138 -23,-273 -71,-399l0 0zm-1568 206c19,-67 48,-129 90,-183 38,-55 87,-103 142,-142 54,-39 115,-71 180,-93 64,-23 135,-33 203,-33 67,0 138,10 203,33 129,41 241,125 322,235 42,54 71,119 93,183l-1233 0z"/>
   </g>
   <g>
    <path class="fil1" d="M19457 12115c-74,0 -132,61 -132,136 0,74 61,132 135,132 75,0 133,-62 133,-132 0,-78 -62,-136 -136,-136 0,0 0,0 0,0l0 0zm0 239c-58,3 -106,-42 -109,-100 -3,-58 42,-107 100,-110 58,-3 106,42 109,100 0,3 0,3 0,7 3,54 -42,103 -97,103 0,0 0,0 -3,0z"/>
   </g>
   <g>
    <path class="fil1" d="M19489 12251l0 0c17,-4 26,-17 26,-33 0,-13 -3,-22 -13,-29 -13,-6 -29,-9 -45,-9 -16,0 -35,0 -51,3l0 132 29 0 0 -52 13 0c16,0 25,7 29,20 3,9 6,22 9,32l32 0c-6,-10 -9,-23 -9,-32 3,-13 -7,-26 -20,-32l0 0zm-38 -10l-16 0 0 -39c6,0 13,0 16,0 19,0 29,10 29,20 3,12 -13,22 -29,19z"/>
   </g>
   <path class="fil1" d="M7714 9893c-19,-16 -193,-148 -567,-148 -97,0 -196,9 -293,25 -71,-492 -480,-731 -496,-744l-100 -58 -64 94c-81,125 -142,267 -177,412 -68,280 -26,544 116,770 -171,97 -448,119 -506,122l-4574 0c-119,0 -216,97 -216,216 -6,400 62,799 200,1176 158,412 393,718 696,905 341,209 898,328 1527,328 283,0 566,-25 847,-77 389,-71 763,-206 1108,-403 283,-164 538,-373 753,-618 364,-409 580,-866 738,-1272 22,0 42,0 64,0 396,0 641,-158 777,-293 90,-84 157,-187 206,-303l29 -84 -68 -48z"/>
   <path class="fil1" d="M1478 10234l612 0c29,0 55,-22 55,-54l0 0 0 -548c0,-29 -22,-55 -55,-55 0,0 0,0 0,0l-612 0c-29,0 -54,23 -54,55 0,0 0,0 0,0l0 548c3,32 25,54 54,54l0 0z"/>
   <path class="fil1" d="M2322 10234l612 0c29,0 55,-22 55,-54l0 0 0 -548c0,-29 -23,-55 -55,-55 0,0 0,0 0,0l-612 0c-29,0 -54,23 -54,55l0 548c3,32 25,54 54,54z"/>
   <path class="fil1" d="M3182 10234l612 0c29,0 55,-22 55,-54l0 0 0 -548c0,-29 -23,-55 -55,-55 0,0 0,0 0,0l-612 0c-29,0 -55,23 -55,55 0,0 0,0 0,0l0 548c0,32 23,54 55,54l0 0z"/>
   <path class="fil1" d="M4029 10234l612 0c29,0 55,-22 55,-54l0 -548c0,-29 -23,-55 -55,-55l0 0 -612 0c-29,0 -54,23 -54,55 0,0 0,0 0,0l0 548c0,32 25,54 54,54l0 0z"/>
   <path class="fil1" d="M2322 9452l612 0c29,0 55,-26 55,-55l0 -548c0,-29 -23,-54 -55,-54l0 0 -612 0c-29,0 -54,22 -54,54l0 548c3,29 25,55 54,55z"/>
   <path class="fil1" d="M3182 9452l612 0c29,0 55,-26 55,-55l0 -548c0,-29 -23,-54 -55,-54l0 0 -612 0c-29,0 -55,22 -55,54l0 0 0 548c0,29 23,55 55,55z"/>
   <path class="fil1" d="M4029 9452l612 0c29,0 55,-26 55,-55l0 -548c0,-29 -26,-54 -55,-54l-612 0c-29,0 -54,22 -54,54l0 0 0 548c0,29 25,55 54,55z"/>
   <path class="fil1" d="M4029 8666l612 0c29,0 55,-23 55,-55l0 -548c0,-29 -26,-54 -55,-54l-612 0c-29,0 -54,22 -54,54l0 0 0 548c0,29 25,55 54,55z"/>
   <path class="fil1" d="M4883 10234l612 0c29,0 55,-22 55,-54l0 -548c0,-29 -23,-55 -55,-55l0 0 -612 0c-29,0 -55,23 -55,55 0,0 0,0 0,0l0 548c3,32 26,54 55,54z"/>
  </g>
 </g>
</svg>
