<?xml version="1.0" encoding="UTF-8"?>
<!DOCTYPE svg PUBLIC "-//W3C//DTD SVG 1.1//EN" "http://www.w3.org/Graphics/SVG/1.1/DTD/svg11.dtd">
<!-- Creator: CorelDRAW X8 -->
<svg xmlns="http://www.w3.org/2000/svg" xml:space="preserve" width="210mm" height="210mm" version="1.1" style="shape-rendering:geometricPrecision; text-rendering:geometricPrecision; image-rendering:optimizeQuality; fill-rule:evenodd; clip-rule:evenodd"
viewBox="0 0 21000 21000"
 xmlns:xlink="http://www.w3.org/1999/xlink">
 <defs>
  <style type="text/css">
   <![CDATA[
    .fil0 {fill:black}
    .fil1 {fill:#70B233}
   ]]>
  </style>
 </defs>
 <g id="Livello_x0020_1">
  <metadata id="CorelCorpID_0Corel-Layer"/>
  <g id="_2947972314752">
   <g>
    <path class="fil0" d="M2904 11100c0,124 -26,249 -84,357 -55,105 -132,198 -224,273 -99,75 -215,133 -348,175 -133,41 -282,66 -440,66 -191,0 -367,-25 -514,-74 -148,-50 -299,-142 -457,-258l249 -406c124,99 232,174 324,224 99,50 199,66 299,66 124,0 224,-33 298,-99 75,-67 116,-150 116,-257 0,-50 -8,-92 -16,-133 -19,-45 -44,-87 -75,-125 -44,-53 -94,-100 -149,-141l-249 -182 -225 -166c-74,-58 -141,-125 -199,-191 -59,-68 -109,-144 -149,-225 -33,-83 -58,-174 -58,-282 0,-124 25,-232 75,-332 49,-99 120,-187 207,-257 83,-66 191,-124 315,-166 125,-42 258,-58 399,-58 149,0 298,17 439,58 142,41 274,100 390,174l-224 368c-157,-108 -315,-167 -489,-167 -108,0 -191,26 -257,84 -66,58 -100,124 -100,207 0,75 33,149 91,207 58,67 167,150 310,266l367 282c99,83 174,158 232,232 58,75 100,141 116,216 17,100 33,183 33,266l-3 -2zm2576 -679c0,-315 -66,-572 -191,-755 -132,-182 -309,-274 -531,-274 -232,0 -425,100 -556,291 -141,191 -207,456 -207,796 0,324 66,581 199,772 133,191 324,282 556,282 141,0 257,-33 348,-107 93,-76 169,-169 225,-274 60,-114 100,-238 116,-366 33,-132 41,-257 41,-367l0 2zm814 -35c0,232 -34,440 -108,631 -67,191 -166,356 -291,506 -124,141 -274,257 -448,332 -174,83 -357,116 -556,116 -4,0 -7,0 -11,0 -80,0 -160,-8 -238,-25 -75,-17 -149,-42 -224,-75 -67,-33 -141,-83 -208,-141 -75,-67 -148,-140 -215,-216l0 1851 -753 0 0 -4373 747 0 0 425c132,-174 282,-299 439,-373 158,-83 349,-116 557,-116 190,0 367,33 522,108 154,72 292,174 407,299 116,124 199,282 266,456 74,183 107,382 107,599l7 -4zm3612 1519l0 -390c-150,166 -299,282 -457,357 -157,74 -340,107 -541,107 -232,0 -425,-41 -581,-132 -155,-92 -274,-225 -340,-407 -17,-43 -31,-88 -41,-133l-26 -158c-10,-68 -16,-138 -16,-207l0 -1942 772 0 0 1668 16 340c17,75 42,150 75,208 91,166 249,249 473,249 290,0 489,-125 599,-367 25,-67 50,-133 58,-208 10,-103 16,-208 16,-312 0,-4 0,-8 0,-11l0 -1577 772 0 0 2923 -779 0 0 -8zm3302 -1015l0 -643 -17 -340c-16,-75 -41,-150 -74,-208 -92,-166 -249,-240 -473,-240 -3,0 -6,0 -8,0 -128,0 -253,31 -366,91 -99,58 -182,149 -232,265 -25,67 -50,133 -58,216 -8,75 -17,183 -17,316l0 1568 -762 0 0 -2923 772 0 0 390c149,-166 298,-282 456,-357 158,-74 340,-108 541,-108 232,0 425,50 581,141 156,92 274,233 340,407 17,42 34,83 42,133l33 158c11,68 16,138 17,207l0 1942 -775 -1015z"/>
   </g>
   <path class="fil0" d="M14520 11905l772 0 0 -1544 1159 1602 716 -247 -1170 -1452 986 -1063 -581 -249 -1029 1195 -83 0 0 -2512 -772 0 2 4270zm-7900 166l771 0 0 -4274 -771 0 0 4274z"/>
   <polygon class="fil1" points="17831,9548 17831,9025 20163,10195 20163,10668 17831,11830 17831,11316 19640,10428 "/>
  </g>
 </g>
</svg>
