<?xml version="1.0" encoding="UTF-8"?>
<!DOCTYPE svg PUBLIC "-//W3C//DTD SVG 1.1//EN" "http://www.w3.org/Graphics/SVG/1.1/DTD/svg11.dtd">
<!-- Creator: CorelDRAW X8 -->
<svg xmlns="http://www.w3.org/2000/svg" xml:space="preserve" width="210mm" height="210mm" version="1.1" style="shape-rendering:geometricPrecision; text-rendering:geometricPrecision; image-rendering:optimizeQuality; fill-rule:evenodd; clip-rule:evenodd"
viewBox="0 0 21000 21000"
 xmlns:xlink="http://www.w3.org/1999/xlink">
 <defs>
  <style type="text/css">
   <![CDATA[
    .fil0 {fill:#8C929D}
    .fil1 {fill:#E24329}
    .fil3 {fill:#FC6D26}
    .fil2 {fill:#FCA326}
   ]]>
  </style>
 </defs>
 <g id="Livello_x0020_1">
  <metadata id="CorelCorpID_0Corel-Layer"/>
  <g id="logo_art">
   <g>
    <g>
     <polygon id="path14_3_" class="fil0" points="14431,8957 14017,8957 14019,12044 15696,12044 15696,11662 14433,11662 14431,8957 "/>
     <g id="g24_3_">
      <path id="path26_3_" class="fil0" d="M17292 11502c-104,109 -277,217 -513,217 -315,0 -442,-156 -442,-359 0,-306 213,-452 665,-452 85,0 222,9 292,23l0 571 -2 0zm-429 -1871c-334,0 -642,118 -881,318l146 254c169,-99 376,-197 674,-197 340,0 490,174 490,467l0 150c-66,-13 -203,-23 -287,-23 -725,0 -1094,255 -1094,786 0,477 293,716 735,716 299,0 585,-136 684,-359l76 302 293 0 0 -1580c-2,-499 -219,-834 -836,-834l0 0z"/>
     </g>
     <g id="g28_3_">
      <g>
       <path id="path30_3_" class="fil0" d="M19035 11733c-156,0 -293,-19 -395,-67l0 -1278 0 -148c140,-118 315,-203 537,-203 401,0 555,283 555,741 0,649 -249,955 -697,955l0 0zm174 -2101c-370,0 -569,253 -569,253l0 -399 -2 -528 -186 0 -219 0 2 3010c203,86 481,132 783,132 773,0 1145,-494 1145,-1347 -2,-674 -346,-1121 -954,-1121z"/>
      </g>
     </g>
     <g id="g32_5_">
      <path id="path34_5_" class="fil0" d="M9923 9292c367,0 604,122 758,245l178 -309c-241,-213 -568,-327 -917,-327 -881,0 -1499,538 -1499,1622 0,1136 667,1578 1429,1578 381,0 706,-89 919,-178l-9 -1214 0 -142 0 -240 -1131 0 0 382 722 0 10 921c-95,48 -259,86 -481,86 -612,0 -1022,-386 -1022,-1197 -2,-826 422,-1227 1043,-1227z"/>
     </g>
     <g id="g36_4_">
      <path id="path38_4_" class="fil0" d="M12839 8957l-405 0 2 519 0 212 0 124 0 216 0 1235 0 4c0,499 217,833 834,833 86,0 169,-7 249,-22l0 -363c-59,9 -122,13 -188,13 -340,0 -490,-175 -490,-467l0 -1235 678 0 0 -338 -678 0 -2 -731 0 0z"/>
     </g>
     <polygon id="path40_33_" class="fil0" points="11406,12044 11810,12044 11810,9689 11406,9689 11406,12044 "/>
     <polygon id="path42_3_" class="fil0" points="11406,9364 11810,9364 11810,8959 11406,8959 11406,9364 "/>
    </g>
    <g>
     <polygon id="path50_5_" class="fil1" points="4043,13453 4043,13453 5225,9819 2864,9819 4043,13453 "/>
     <path id="path66_12_" class="fil2" d="M1209 9819l0 0 -360 1104c-33,101 3,211 89,274l3105 2256 -2834 -3634 0 0z"/>
     <path id="path74_5_" class="fil1" d="M1209 9819l1655 0 -713 -2188c-36,-112 -195,-112 -233,0l-709 2188 0 0z"/>
     <path id="path82_12_" class="fil2" d="M6879 9819l0 0 359 1104c32,101 -3,211 -89,274l-3106 2256 2836 -3634 0 0z"/>
     <path id="path86_5_" class="fil1" d="M6879 9819l-1654 0 710 -2188c37,-112 196,-112 233,0l711 2188 0 0z"/>
     <polygon class="fil3" points="4043,13453 5225,9819 6879,9819 "/>
     <polygon class="fil3" points="4043,13453 1209,9819 2864,9819 "/>
    </g>
   </g>
  </g>
 </g>
</svg>
