<?xml version="1.0" encoding="UTF-8"?>
<!DOCTYPE svg PUBLIC "-//W3C//DTD SVG 1.1//EN" "http://www.w3.org/Graphics/SVG/1.1/DTD/svg11.dtd">
<!-- Creator: CorelDRAW X8 -->
<svg xmlns="http://www.w3.org/2000/svg" xml:space="preserve" width="210mm" height="210mm" version="1.1" style="shape-rendering:geometricPrecision; text-rendering:geometricPrecision; image-rendering:optimizeQuality; fill-rule:evenodd; clip-rule:evenodd"
viewBox="0 0 21000 21000"
 xmlns:xlink="http://www.w3.org/1999/xlink">
 <defs>
  <style type="text/css">
   <![CDATA[
    .fil0 {fill:black}
   ]]>
  </style>
 </defs>
 <g id="Livello_x0020_1">
  <metadata id="CorelCorpID_0Corel-Layer"/>
  <g id="_2948301681376">
   <polygon class="fil0" points="7395,11753 7395,10713 6480,10713 6480,11753 6013,11753 6013,9289 6480,9289 6480,10304 7395,10304 7395,9289 7862,9289 7862,11753 "/>
   <g>
    <g>
     <path class="fil0" d="M9128 11064l-332 0c-148,0 -190,42 -190,177 0,125 42,180 180,180 133,0 255,-45 342,-93 0,3 0,-264 0,-264zm454 683l-370 0 -33 -123c-161,103 -344,158 -538,158 -328,0 -470,-226 -470,-535 0,-367 158,-505 525,-505l432 0 0 -190c0,-200 -55,-271 -345,-271 -164,0 -341,23 -499,55l-55 -345c171,-51 419,-84 619,-84 567,0 731,200 731,651l3 1189 0 0zm873 35c-193,0 -454,-45 -622,-103l65 -345c151,45 351,78 538,78 199,0 228,-46 228,-181 0,-109 -22,-167 -315,-235 -442,-106 -493,-219 -493,-567 0,-364 158,-522 673,-522 167,0 383,23 541,65l-45 357c-138,-25 -354,-51 -496,-51 -196,0 -229,45 -229,154 0,145 10,155 255,219 502,132 551,200 551,571 0,347 -110,560 -651,560l0 0zm1994 -35l0 -1257c0,-96 -42,-145 -145,-145 -110,0 -306,68 -471,152l0 1250 -450 0 0 -2539 450 -64 0 937c200,-103 468,-174 658,-174 299,0 405,213 405,532l0 1304 -447 0 0 4z"/>
    </g>
    <g>
     <path class="fil0" d="M13231 11747l451 0 0 -1801 -451 0 0 1801 0 0zm0 -2059l451 0 0 -521 -451 0 0 521 0 0zm767 271c0,-451 264,-715 876,-715 229,0 467,29 670,80l-51 403c-200,-35 -432,-64 -603,-64 -322,0 -425,109 -425,373l0 947c0,264 103,374 425,374 171,0 403,-26 603,-65l51 403c-203,52 -441,81 -670,81 -615,0 -876,-265 -876,-716 0,10 0,-1101 0,-1101zm2470 332c-241,0 -331,106 -331,309l0 483c0,203 93,309 331,309 242,0 332,-106 332,-309l0 -483c0,-200 -90,-309 -332,-309l0 0zm0 1491c-618,0 -782,-341 -782,-709l0 -454c0,-370 167,-712 782,-712 619,0 783,342 783,712l0 454c0,371 -164,709 -783,709l0 0zm1981 -1459c-174,77 -315,158 -476,264l0 1163 -451 0 0 -1801 380 0 29 200c100,-68 315,-193 473,-238l45 412 0 0zm635 1027c119,26 270,49 399,49 165,0 226,-78 226,-242l0 -638c0,-148 -55,-228 -222,-228 -149,0 -306,74 -403,164l0 895zm1079 -203c0,400 -177,638 -596,638 -158,0 -341,-22 -480,-51l0 744 -451 64 0 -2593 358 0 45 152c158,-116 344,-190 570,-190 364,0 554,215 554,624l0 612 0 0zm-17548 -2905l-1778 1024 0 2464 667 387 0 -2464 1111 -641 0 -770z"/>
    </g>
    <polygon class="fil0" points="3324,8242 3324,10204 2615,10204 2615,9469 1948,9856 1948,12371 2615,12758 2615,10803 3324,10803 3324,11531 3990,11144 3990,8629 "/>
    <polygon class="fil0" points="3324,12758 5102,11734 5102,9270 4435,8883 4435,11347 3324,11988 "/>
   </g>
  </g>
 </g>
</svg>
