<?xml version="1.0" encoding="UTF-8"?>
<!DOCTYPE svg PUBLIC "-//W3C//DTD SVG 1.1//EN" "http://www.w3.org/Graphics/SVG/1.1/DTD/svg11.dtd">
<!-- Creator: CorelDRAW X8 -->
<svg xmlns="http://www.w3.org/2000/svg" xml:space="preserve" width="210mm" height="210mm" version="1.1" style="shape-rendering:geometricPrecision; text-rendering:geometricPrecision; image-rendering:optimizeQuality; fill-rule:evenodd; clip-rule:evenodd"
viewBox="0 0 21000 21000"
 xmlns:xlink="http://www.w3.org/1999/xlink">
 <defs>
  <style type="text/css">
   <![CDATA[
    .fil0 {fill:black}
    .fil3 {fill:#2EB67D}
    .fil2 {fill:#36C5F0}
    .fil1 {fill:#E01E5A}
    .fil4 {fill:#ECB22E}
   ]]>
  </style>
 </defs>
 <g id="Livello_x0020_1">
  <metadata id="CorelCorpID_0Corel-Layer"/>
  <g id="_2912874515808">
   <g>
    <path class="fil0" d="M7019 11905l242 -560c261,194 607,296 950,296 253,0 412,-98 412,-246 -3,-412 -1514,-89 -1526,-1125 -4,-525 464,-930 1125,-930 394,0 787,97 1067,319l-226 572c-257,-163 -576,-280 -879,-280 -207,0 -343,97 -343,222 4,405 1526,183 1542,1172 0,537 -456,915 -1110,915 -479,0 -919,-113 -1254,-355l0 0zm9262 -763c-120,211 -346,355 -607,355 -385,0 -697,-312 -697,-697 0,-386 312,-697 697,-697 261,0 487,144 607,354l666 -370c-249,-443 -728,-747 -1273,-747 -806,0 -1460,654 -1460,1460 0,806 654,1460 1460,1460 549,0 1024,-300 1273,-748l-666 -370 0 0zm-6564 -3013l834 0 0 4076 -834 0 0 -4076zm7557 0l0 4076 833 0 0 -1222 989 1222 1067 0 -1258 -1452 1165 -1355 -1021 0 -942 1125 0 -2394 -833 0zm-4247 3021c-121,199 -370,347 -650,347 -386,0 -697,-312 -697,-697 0,-386 311,-697 697,-697 280,0 529,156 650,358l0 689 0 0zm0 -1752l0 331c-137,-230 -475,-389 -830,-389 -731,0 -1308,646 -1308,1456 0,810 577,1464 1308,1464 355,0 693,-160 830,-390l0 331 833 0 0 -2803 -833 0z"/>
   </g>
   <path class="fil1" d="M1869 11146c0,284 -230,514 -514,514 -284,0 -514,-230 -514,-514 0,-284 230,-514 514,-514l514 0 0 514zm257 0c0,-284 229,-514 514,-514 284,0 514,230 514,514l0 1285c0,284 -230,514 -514,514 -285,0 -514,-230 -514,-514l0 -1285z"/>
   <path class="fil2" d="M2640 9083c-285,0 -514,-230 -514,-514 0,-284 229,-514 514,-514 284,0 514,230 514,514l0 514 -514 0zm0 261c284,0 514,229 514,514 0,284 -230,514 -514,514l-1289 0c-284,0 -514,-230 -514,-514 0,-285 230,-514 514,-514l1289 0z"/>
   <path class="fil3" d="M4699 9858c0,-285 230,-514 514,-514 284,0 514,229 514,514 0,284 -230,514 -514,514l-514 0 0 -514zm-257 0c0,284 -230,514 -514,514 -284,0 -514,-230 -514,-514l0 -1289c0,-284 230,-514 514,-514 284,0 514,230 514,514l0 1289z"/>
   <path class="fil4" d="M3928 11917c284,0 514,230 514,514 0,284 -230,514 -514,514 -284,0 -514,-230 -514,-514l0 -514 514 0zm0 -257c-284,0 -514,-230 -514,-514 0,-284 230,-514 514,-514l1289 0c284,0 514,230 514,514 0,284 -230,514 -514,514l-1289 0z"/>
  </g>
 </g>
</svg>
